<?xml version="1.0" encoding="UTF-8"?>
<svg id="Camada_2" data-name="Camada 2" xmlns="http://www.w3.org/2000/svg" viewBox="0 0 571.67 857.13">
  <defs>
    <style>
      .cls-1 {
        fill: #fff;
      }
    </style>
  </defs>
  <g id="Camada_1-2" data-name="Camada 1">
    <path class="cls-1" d="M483.88,317.61c3.36,4.88,4.24,10.94.33,15.61-3.83,4.57-10.14,5.72-15.96,2.58l-55.68,53.72c3.25,5.57,1.71,12.28-3.2,15.7s-11.22,2.94-15.35-1.53l-98.99,64.25c1.55,7.3-4.34,13.49-10.87,13.9-8.09.51-13.87-5.83-12.83-13.64l-97.58-65.61c-4.75,4.3-11.23,4.76-15.89,1.09-4.81-3.79-5.96-10.3-2.66-15.9l-56.33-56.2c-5.05,3.5-11.68,3.07-15.63-1.18-4.2-4.52-4.47-11.5-.19-16.41l-39.58-59.68-30.27-65.84c-6.46.78-12.17-3.34-13.08-9.81-.88-6.33,3.61-12.34,10.81-13.18l31.33-102.61c-3.14-1.8-5.26-4.29-5.81-7.69-.93-5.69,2.07-10.73,6.88-12.84s10.68-1.02,14.25,3.48L128.98,13.29c-.56-6.9,3.76-12.64,10.62-13.25,6.31-.57,11.94,4.5,12.92,11.05l41.99,8.61,18.35,3.86c3.31-6.07,10.52-7.44,15.97-4.78,5.76,2.82,7.91,9.57,5.09,16.09l43.31,39.97c4.64-3.82,11.08-3.19,15.39.82l46.53-40.82c-2.77-6.35-.73-13.22,5.16-16.04,5.58-2.67,12.92-.96,16.18,5.59l60.62-12.24c.86-7.45,6.34-11.48,13.17-10.85,5.89.54,11.07,6.13,10,12.94l50.7,25.03,22.31,11.77c4.91-5.3,12.94-5.26,17.44.15,4.73,5.7,3.81,13.43-2.52,17.72l27.35,102.37c7.11.39,12.51,6.09,12.09,12.87-.45,7.42-6.66,12.14-14.36,11.11l-30.58,62.81-42.83,59.52ZM148.52,34.8l48.73-5.92,13.32-1.13-58.86-12.33c-2.06,4.05-4.81,6.95-9.48,7.71l-1.46,4.81c4.07,1.23,5.64,3.4,7.75,6.87ZM431.53,29.99l-.84-5.8c-4.76-.6-7.16-3.39-9.19-7.63l-59.45,12.09,10.17,1,52.24,7.19c1.53-3.43,3.26-5.34,7.07-6.84ZM135.97,27.33l.59-4.52c-2.59-1.47-4.1-2.84-6.13-5.37l-28.91,13.14-42.07,19.04,66.09-11.71c.68-6.04,4.65-9.7,10.43-10.58ZM447.26,40.5l67.29,13.75-17.94-8.91-53.38-26.64-6.07,5.07c-.84.7-1.33,3.16-.98,4.07,1.05,2.75,9.92,1.51,11.07,12.66ZM200.96,87.4l7.5-3.72,10.19-43.87c-4.06-1.94-6.05-4.67-7.25-8.67l-62.64,8.17-.85,4.01,39.05,32.2,14,11.87ZM369.46,88.39l52.68-41.17c1.6-1.25,2.93-2.17,2.56-3.47-.72-2.53-1.58-2.52-3.85-2.86l-59.4-8.82c-1.17,4.45-3.74,7.12-7.83,8.75l7.81,44.42c2.94.67,5.13,1.55,8.02,3.14ZM220.34,92.48l51.87-9.12,1.71-5.18-43.66-39.81-6.79,2.57-10.54,44.14c3.71,1.5,5.91,4.22,7.42,7.4ZM349.84,93.35c1.32-3.88,3.52-5.76,6.74-7.28l-7.89-44.72-6.81-2.57-43.32,37.86c-1.29,1.13-3.04,2.12-2.97,3.22.09,1.47,1.23,3.8,2.43,4.02l51.81,9.47ZM68.54,88.19c4.22-1.28,6.93-.6,10.22.84l48.52-46.88-67.12,11.6c-.65,3.46-2.29,5.99-4.69,8.44l13.08,26ZM518.19,67.86c-3.04-3.16-3.79-5.82-4.27-9.13l-68.55-13.83,47.94,48.58c3.6-1.2,6.64-1.16,10.14-.26l14.75-25.36ZM123.08,115.1l73.32-18.75,1.39-5.42-53.28-44.22c-2.88,2.47-5.6,2.98-8.69,3.23l-18.6,59.46c2.28,1.51,4.16,3.41,5.85,5.69ZM102.99,113.14c3.07-3.65,5.64-4.51,9.51-4.68l18.76-61.43c-4.91,2.08-7.72,5.63-11.22,8.99l-38.05,36.58c1.85,3.05,2.14,6.54,1.44,10.31l19.56,10.23ZM446.13,115.92c2.48-2.83,3.86-3.91,6.33-5.63l-16.61-58.03c-3.47-.15-5.89-1.1-8.45-3.18l-55.39,43.27,1.57,5.28,72.55,18.29ZM467.22,115.11l20.06-8.7c.04-3.68.62-6.52,2.11-9.96l-46.46-46.37c-.84-.43-1.79,1.91-1.47,3.04l16.07,56.62c3.99.27,7.16,2.06,9.7,5.37ZM64.23,90.15l-12.95-25.5c-1.23-.15-3.47-.06-4.83.28l-30.31,99.25,46.52-58.56c-3.41-5.03-2.4-10.99,1.56-15.48ZM540.42,152.71l14.6,19.72-27.2-101.62-5.56-.38-14.9,25.61c4.33,4.36,4.49,10.53,1.13,14.9l31.94,41.77ZM274.14,140.35l6.72-3.36.97-41.67c-4.53-1.21-7.08-3.65-8.46-7.65l-52.06,9.04c-.79,1.36-1.48,3.46-1.53,4.65l21.48,14.87,32.89,24.13ZM343.02,106.39l6.95-4.48-1.16-4.3-53.13-9.73c-2.09,4.2-5.3,6.61-9.13,7.8l-1.22,41.72c2.74,1.09,4.43,1.96,6.64,3.51l51.04-34.51ZM183.39,168.09c2.26-1.43,4.71-2.29,7.76-2.96l12.8-57.83c-3.01-1.91-4.83-4.13-6.18-6.8l-73.22,18.88c-.93,1.76-1.64,4.07-1.91,5.75l24.18,16.65,36.58,26.3ZM383.4,169.82l63.16-43.95-1.39-5.32-72.76-18.67c-1.67,3.2-3.9,5.14-6.76,6.74l10.01,57.59c2.86.78,5.33,1.98,7.73,3.6ZM270.66,149.91l.79-5.42-18.24-13.44-27.51-19.9-8.74-6.6c-2.46,1.93-5.09,3.03-8.36,3.92l-12.74,57.41c2.94,1.87,4.7,3.51,6.87,5.96l67.94-21.93ZM364.02,172.54c2.21-3.39,4.23-4.63,6.86-5.73l-10.23-57.71c-3.35-.32-5.61-1.49-8.05-3.71l-57.77,39.45.24,5.5,41.92,13.26,27.03,8.94ZM89.57,166.93l15.45-37.44c-3.88-3.27-4.98-7.89-4.4-12.3l-19.68-10.47-5.08,3.58,9.73,57.04c1.51.17,3.11.06,3.98-.4ZM73.92,177.58c1.09-4.71,3.16-7.04,6.97-8.92l-10.15-58.05-4.78-1.59-16.74,21.58-30.12,38.09c2.69,1.64,3.76,4.43,4.14,7.7l50.69,1.18ZM483.12,170.45l11.67-55.36c-2.05-1.01-3.78-2.34-5.93-4.42l-19.75,8.3c1.33,5.76-1.26,9.91-5.18,12.89l15.77,39.47c.7-.08,2.24-.46,3.41-.88ZM494.31,180.6l53.67.79,3-6.32-45.91-60.85-5.51,1.93-12.04,55.8c3.64,1.76,5.79,4.54,6.78,8.64ZM97.75,178.18l81.88-2.29c.49-1.72,1.09-3.53.61-4.25-.39-.6-1.75-1.17-2.65-1.81l-58-41.33c-3.2,2.23-6.18,3.08-9.94,2.85l-16.4,38.8c2.63,2.41,3.68,4.65,4.49,8.03ZM471,180.15c1.05-3.12,2.43-4.99,4.18-6.85l-16.16-40.01c-3.61-.02-6.85-.86-9.51-3.8l-63.61,44.39,1.53,2.99,83.57,3.27ZM274.32,257.22l5.19-2.93.73-93.3c-4.04-1.11-6.62-3.17-8.55-6.75l-67.89,21.96-1.86,7.64,61.81,62.08,10.56,11.3ZM289.95,257.08l74.49-72.93c-1.09-2.66-1.5-4.61-1.67-7.31l-68.77-22.38c-2.65,3.51-5.52,5.53-9.15,6.93l-1.07,92.89,6.16,2.8ZM162.02,267.73c1.9-.14,4.01-.68,5.3-1.45l19.03-78.24c-3.78-1.83-5.35-4.27-6.16-8l-82.84,2.18-2.26,4.43,10.29,11.87,30.2,36.37,26.44,32.84ZM89.57,262.94l-6.08-72.24c-4.97-1.03-8.08-4.23-9.5-9.04l-50.48-1.13-2.8,4.02,41.76,50.69,23.25,28.9c.6.75,1.71,1.47,2.42,1.52.57.03,1.52-1.7,1.43-2.7ZM402.5,268.72l70.63-79.22-2.44-4.96-84.01-3.56c-1.27,3.58-3.31,6.18-6.81,8.22l4.22,19.29,12.81,58.28,5.61,1.94ZM526.32,218.41l24.02-26.84-2.52-5.96-53.62-.69c-1.43,4.66-4.63,8.39-9.55,9.31l-7.12,72.97,3.81,2.15,44.98-50.94ZM269.5,266.01l1.45-5.33-13.07-13.46-55.6-55.98-3.78-3.8-7.18,1.96-19.22,77.91c3.5,1.86,5.98,4.3,7.49,7.92l89.9-9.22ZM384.91,274.92c1.84-3.9,3.9-5.74,6.97-7.57l-17-77.16c-2.65-.63-4.61-1.26-7.22-2.57l-53.43,52.42-21.5,20.91,1.68,4.98,90.5,8.99ZM156.36,275.66l1.89-5.1-27.01-32.9-38.63-46.31c-.6-.72-1.99-1.41-2.74-1.33s-1.45,1.96-1.37,2.99l6.05,71.52c5.21.81,8.95,4.46,9.89,9.95l51.9,1.18ZM89.66,287.66c-4.07-1.88-6.75-4.66-7.81-8.06-1.18-3.77-.39-7.14,1.62-10.92l-42.79-52.12-21.03-25.89,28.96,62.28,36.95,56.46c.71,1.09,1.18,1.72,1.72,2.12.43.32,2.39-1.27,2.39-1.78v-22.08ZM463.02,276.9c1.4-5.09,4.99-8.34,9.71-9.3l7.07-72.99c.1-1.02-3.31-1.95-3.98-1.2l-59.88,67.18-9.68,11.23,2.31,4.49,54.45.6ZM481.76,312.9l40.73-58.04c5.96-8.5,9.08-18.49,13.63-27.76l14.04-28.62-65.88,74.21c2.11,3.67,3,7.28.98,11.53-1.16,2.45-3.98,4.79-7.84,6.43l-.49,23.69c1.85.96,3.53.42,4.84-1.45ZM274.65,371.6l5.48-2.7-.64-90.58c-4.85-.67-7.6-3.58-8.76-7.84l-33.99,3.24-56.61,5.8-1.55,4.44,96.08,87.64ZM317.99,346.08l46.15-42.18,21.6-19.24-1.53-5.49-90.71-8.87c-2.01,4.49-5.03,7.14-9.25,8.37l.47,90.13,5.45,2.85,27.82-25.58ZM100.99,314.84l55.36-31.86c.46-.93-.29-3.22-1.01-2.94l-50.97-1.2c-1.24,4.96-5.02,8.02-9.65,8.92l-.3,22.77c2.47,1.07,4.45,2.43,6.57,4.31ZM472.41,290.27c-5.83-.83-8.28-4.61-9.32-8.94l-51.32-1.03c-.88-.02-3.16-.19-3.4.52l-.83,2.41,58.32,35.22c1.82-1.88,3.75-2.97,6.4-3.96l.15-24.22ZM133.97,337.93l42.57,18.64,4.85-4.32-14.15-61.77c-2.97-.56-5.54-1.61-8.02-4.12l-50.35,29.32-5.61,2.92.4,6.36,30.31,12.97ZM389.23,358.55l73.75-30.24.5-5.64-58.69-35.57c-2.52,2.2-4.63,3.23-7.47,4.08l-13.74,63.58,5.65,3.8ZM198.13,363.08l72.54,14.42c.52-.6,1.23-1.5.95-1.79l-1.02-1.07-59.36-54.58-35.51-31.94-3.77,2.09,3.09,12.45,11.19,49.36c6.46.11,10.89,4.61,11.89,11.06ZM367.54,364.34c1.57-5.7,5.45-9.61,11.25-10.19l13.7-63.62-3.9-2.41-32.71,29.73-62.17,57.1c-.23.5-.47,2.19.04,2.18l2.03-.05,71.77-12.74ZM169.14,383.36l8.65-12.18c-2.79-3.52-3.64-6.5-3.25-10.64l-70.76-30.83,12.89,13.01,41.76,41.71c3.61-2.04,7.02-1.85,10.71-1.07ZM397.97,384.8c4.66-2.01,7.84-.59,11.31,1.27l56.03-53.81-74.26,30.36c.74,4-.37,7.27-2.28,10.4l9.2,11.78ZM280.94,457.64l-.55-64.79c-6.11-1.12-9.49-5.34-9.84-10.96l-70.92-14.24c-.96-.19-2.78.37-2.96,1.12s.69,1.8,1.54,2.75l78.12,88.5c1.31-.11,4.04-1.26,4.62-2.4ZM285.66,458.53l4.43,1.86,34.6-39.05,44.67-49.35-1.46-3.5-73.23,13.25c-.84,5.84-4.44,9.93-9.71,11.34l.3,11.25.4,54.21ZM261.4,456.12l12.27,8.01-10.34-11.81-63.58-71.67-6.76-7.8c-3.3,2.19-7.29,2.14-10.9,1.1l-8.75,12.27c3.88,3.79,4.26,7.78,3.31,12.69l84.75,57.21ZM352.4,425.75l38.99-25.72c-1.29-4.81-.28-8.67,2.18-12.26l-8.78-11.67c-4.2,1.09-7.81.9-11.96-.98l-43.61,48.39-31.08,34.83c-1.57,1.76-3.9,3.07-4.63,5.17l58.89-37.76Z"/>
    <g>
      <path class="cls-1" d="M167.62,823.96c-8.63,23.09-30.58,35.88-54.61,32.41-9.47-1.37-17.42-5.53-23.65-12.98-1.53,6.22-5.91,10.91-12.11,11.04l-14.11.3c-7.09-.68-14.21-6.15-14.22-14.51l-.05-124.35c0-7.5,5.69-13.86,13.05-13.9l18.09-.1c7.11,1.98,11.19,6.92,11.22,13.98l.13,29.54c9.28-8.76,19.72-12.32,31.94-12.11,21.33.37,38.75,13.03,45.51,33.2,6.22,18.58,5.9,38.53-1.18,57.46ZM127.41,810.17c5.06-9.87,4.86-21.78.27-31.3-3.71-7.7-11.4-11.46-19.38-10.89-16.69,1.19-21.74,21.34-16.87,38.77,2.25,8.05,9.42,13.26,16.94,13.98,7.41.71,15.14-2.98,19.03-10.56Z"/>
      <path class="cls-1" d="M91.22,618.33l-.33,58.69c-.04,7.27-4.91,14.21-12.47,14.4l-14.61.36c-7.06.17-14.81-5.47-14.82-13.67l-.04-95.24c0-7.14,4.82-14.59,11.82-15.64,13.45-2.01,27.8-1.44,28.59,10.22,15.49-15.59,41.48-18.24,58.3-3.02,9.25,8.37,13.9,21.67,13.97,34.2l.38,68.49c.05,8.17-5.51,15.39-13.89,15.48l-14.6.16c-6.82.07-13.72-5.82-13.77-13.48l-.34-59.63c-.03-5.81-3.36-11.81-8.32-14.18-4.25-2.03-9.6-1.24-13.16,1.5-2.57,1.98-6.7,6.57-6.73,11.37Z"/>
      <path class="cls-1" d="M407.79,854.61l-15.21.02c-6.85,0-13.31-6.39-13.35-13.54l-.31-63.51c-.02-4.96-3.99-10.16-7.29-11.5-4.82-1.95-10.58-1.02-14.19,2.68-3.28,3.36-5.42,8.49-5.44,13.35l-.24,58.22c-.03,7.86-6.84,14.34-14.04,14.28l-15.35-.12c-6.84-.05-12.87-6.86-12.87-14.21l.02-99.67c0-8.01,6.36-14.03,13.85-14.61,14.28-1.1,25.65-1.56,27.93,10.55,10.5-11.31,24.75-16.06,39.19-13.28,10.41,2,18.72,7.7,24.79,16.91,13.65-17.67,37.67-22.97,56.98-12.28,15.04,8.32,20.5,26.91,20.48,44.05l-.1,68.37c-.01,7.47-5.88,14.12-13.05,14.2l-16.59.19c-6.75.08-13.34-6.25-13.38-13.47l-.36-62.51c-.03-5.34-3.81-10.72-7.52-12.24-5.1-2.1-10.82-1.44-14.73,2.6-3.39,3.51-5.18,8.95-5.21,14.02l-.35,57.69c-.04,7.23-6.65,13.82-13.67,13.82Z"/>
      <path class="cls-1" d="M226.23,801.1c6.08,20.8,28.93,20.46,49.46,13.53,4.65-1.57,9.55-1.47,13.8,1.18,3.2,1.99,5.29,7.09,6.07,11.35,2.06,11.23-2.77,20.52-13.74,24.31-34.74,12-79.45,6.32-93.78-30.25-12.4-31.64-6.08-75.76,25.72-92.28,24.65-12.81,60.55-9.36,75.6,14.65,7.42,11.83,9.77,25.72,7.83,39.52-1.4,9.92-9.73,17.36-20.18,17.47l-50.78.52ZM257.62,774.55c1.69-6.28.81-10.52-2.51-14.47-2.55-3.04-7.66-5.26-12.43-4.81-9.95.95-16.49,9.05-16.33,19.46l31.26-.18Z"/>
      <path class="cls-1" d="M335.27,651.35c.03,15.63,19.19,3.93,22.74,16.08,3.55,12.15,2.23,24.6-9.21,28.64-14.28,5.05-31.24,4.16-43.68-5.25-8.4-6.35-12.62-17.48-12.67-28.03l-.27-56.31c-6.31.41-11.04-2.65-12.11-8.69-.98-5.51-1.03-12.23-.09-17.79,1.03-6.08,6.86-8.86,12.3-7.64l.3-21.02c.11-7.68,6.26-14.8,13.85-14.84l14.69-.07c7.84-.04,13.87,7.12,13.94,14.89l.17,20.54,13.35.29c5.73.12,10.93,4.74,10.91,10.65l-.05,13.4c-.02,6.13-5.69,10.16-11.28,10.23l-12.97.16.09,44.76Z"/>
      <path class="cls-1" d="M211.32,643.74c5.16,19.29,25.64,20.19,44.5,12.96,4.24-1.63,9.07-1.69,13.34.77,3.06,1.76,5.56,6.86,6.39,11.12,2.06,10.55-2.47,18.75-12.07,23.03-33.68,15.02-78.6,6.47-89.72-31.22-5.34-18.12-5.27-37.33-.2-55.39,7.47-26.61,31.53-42.48,58.8-39.97,31.53,2.9,47.35,27.78,44.62,58.96-.98,11.18-9.58,19.28-21.23,19.38l-44.44.38ZM239.33,617.33c1.98-4.24,1.23-9.25-.97-12.58-1.67-2.54-5.87-5.31-9.71-5.66-10.35-.95-17.83,6.96-17.67,18.23h28.34Z"/>
      <path class="cls-1" d="M408.75,692.62c-5.54,5.99-12.79,7.71-20.99,5.49-6.34-1.72-12.5-6.6-15.04-14.18-5.64-16.8-1.08-38.3,14.94-43.03,7.51-2.22,13.95-.98,20.63,3.87l.12-18.63c.01-1.86,1.28-5.52,2.76-6.43,3.53-2.17,11.25-2.28,15.04.16,1.85,1.19,2.88,4.8,2.87,7.39l-.04,61.95c0,2.58-1.62,6.14-3.29,7.2-4.59,2.92-15.48,2.91-16.99-3.79ZM408.07,676.63c2.01-5.03,1.8-10.75-.47-15.22-1.41-2.78-4.92-4.85-7.53-4.79s-5.87,1.82-7.31,4.22c-2.92,4.87-2.88,10.92-.69,16.16,1.29,3.09,4.91,5.13,7.92,5.17s6.67-2.01,8.08-5.54Z"/>
      <path class="cls-1" d="M492.73,669.41c0,16.35-13.25,29.6-29.6,29.6s-29.6-13.25-29.6-29.6,13.25-29.6,29.6-29.6,29.6,13.25,29.6,29.6ZM471.41,676.15c1.73-4.66,1.48-10.13-.33-14.4-1.45-3.42-4.94-5.42-8.22-5.28-2.73.12-6.11,2.21-7.28,5.25-3.47,8.97-.62,19.95,7.38,20.39,3.2.18,7-2.04,8.45-5.97Z"/>
      <g>
        <path class="cls-1" d="M56.72,518.48v6.61h11.31v3.75h-11.31v9.91h-4.3v-24.06h17l-.04,3.79h-12.66Z"/>
        <path class="cls-1" d="M81.63,533.25c1.17,1.29,2.75,1.93,4.74,1.93s3.57-.64,4.74-1.93,1.75-3.03,1.75-5.23v-13.32h4.3v13.49c0,3.46-1.01,6.13-3.03,8-2.02,1.87-4.61,2.81-7.77,2.81s-5.75-.93-7.77-2.81c-2.02-1.87-3.03-4.54-3.03-8v-13.49h4.3v13.32c0,2.2.58,3.95,1.75,5.23Z"/>
        <path class="cls-1" d="M124.48,514.69h4.3v24.06h-4.67l-14.44-17.56v17.56h-4.3v-24.06h4.3l14.81,17.97v-17.97Z"/>
        <path class="cls-1" d="M156.61,517.84c2.46,2.1,3.68,5.02,3.68,8.76s-1.19,6.7-3.57,8.88c-2.38,2.18-6.03,3.27-10.94,3.27h-8.46v-24.06h8.75c4.57,0,8.08,1.05,10.54,3.15ZM155.95,526.71c0-5.51-3.34-8.26-10.03-8.26h-4.3v16.49h4.78c3.09,0,5.45-.69,7.09-2.08s2.46-3.44,2.46-6.14Z"/>
        <path class="cls-1" d="M170.91,533.28l-2.55,5.47h-4.6l11.23-24.06h4.6l11.23,24.06h-4.59l-2.55-5.47h-12.76ZM181.92,529.53l-4.63-9.91-4.63,9.91h9.26Z"/>
        <path class="cls-1" d="M207.45,535.07c1.48,0,2.76-.23,3.83-.71,1.07-.47,2.19-1.22,3.36-2.25l2.77,2.68c-2.53,2.66-5.62,4.06-9.26,4.2l-.58,1.07c1.7.21,2.55,1.11,2.55,2.72,0,.87-.38,1.63-1.13,2.29-.75.65-1.71.98-2.86.98s-2.17-.25-3.04-.76l.95-1.96c.46.23.93.34,1.4.34s.84-.13,1.11-.4c.27-.26.4-.58.4-.95s-.14-.69-.42-.98c-.28-.29-.63-.43-1.06-.43s-.78.06-1.08.17l1.2-2.17c-3.33-.39-6.07-1.72-8.21-3.99-2.14-2.27-3.21-5.12-3.21-8.54s1.29-6.32,3.88-8.71c2.59-2.39,5.86-3.58,9.81-3.58s7.25,1.38,9.9,4.13l-2.74,2.82c-1.22-1.1-2.37-1.87-3.45-2.31-1.08-.44-2.35-.65-3.81-.65-2.58,0-4.74.79-6.49,2.36-1.75,1.57-2.63,3.58-2.63,6.02s.87,4.49,2.61,6.13,3.8,2.46,6.18,2.46Z"/>
        <path class="cls-1" d="M235.97,514.69l11.23,24.06h-4.74l-2.59-5.47h-12.22l-2.48,5.47h-4.6l11.23-24.06h4.16ZM236.56,512.8c-.63,0-1.51-.27-2.64-.81-1.13-.54-1.85-.81-2.17-.81-.8,0-1.22.51-1.24,1.51h-2.7c0-1.33.29-2.41.86-3.24s1.37-1.24,2.39-1.24c.66,0,1.57.27,2.74.81,1.17.54,1.93.81,2.3.81.73,0,1.09-.5,1.09-1.51h2.74c-.07,2.98-1.19,4.47-3.36,4.47ZM238.16,529.53l-4.38-9.26-4.34,9.26h8.72Z"/>
        <path class="cls-1" d="M273.54,535.43c-2.58,2.38-5.76,3.56-9.56,3.56s-6.98-1.19-9.56-3.56c-2.58-2.38-3.87-5.33-3.87-8.88s1.29-6.51,3.87-8.88c2.58-2.38,5.76-3.56,9.56-3.56s6.98,1.19,9.56,3.56c2.58,2.38,3.87,5.34,3.87,8.88s-1.29,6.51-3.87,8.88ZM270.38,520.37c-1.74-1.7-3.87-2.55-6.4-2.55s-4.66.85-6.4,2.55-2.61,3.76-2.61,6.18.87,4.48,2.61,6.18c1.74,1.7,3.87,2.55,6.4,2.55s4.66-.85,6.4-2.55c1.74-1.7,2.61-3.76,2.61-6.18s-.87-4.48-2.61-6.18Z"/>
      </g>
    </g>
  </g>
</svg>