<?xml version="1.0" encoding="UTF-8"?>
<svg id="Camada_2" data-name="Camada 2" xmlns="http://www.w3.org/2000/svg" viewBox="0 0 968.01 444.49">
  <defs>
    <style>
      .cls-1 {
        fill: #66aa83;
      }
    </style>
  </defs>
  <g id="Camada_1-2" data-name="Camada 1">
    <path class="cls-1" d="M427.76,300.02l-54.23,54.04c.99,4.4.41,9.09-2.14,11.67-3.58,3.61-8.07,3.6-12.79,1.4l-73.19,49.3-23.98,15.47c.69,7.21-4.33,12.7-10.84,12.6-7.04-.11-11.13-5.45-10.35-12.78l-93.4-65.35c-3.93,2.23-8.76,2.35-12.23-.21-3.9-2.87-4.7-7.73-2.59-12.7l-54.91-54.42c-5.85,2.56-11.2.74-14.02-3.25-3-4.24-2.11-9.91,1.72-13.98l-23.2-46.91c-11.76-23.77-20.94-47.95-31.01-72.29-6.56-.17-10.44-4.64-10.61-10.07-.18-5.91,4.22-10.32,10.61-10.78L47.97,53.51c-4.01-4.6-4.6-10.89-.54-15.17,4.16-4.39,10.69-4.73,15.24-.29l67.77-28.54C131.72,3.94,134.97.22,140.35,0c5.59-.22,8.75,3.81,10.48,9l47.8,12.99c4.06-2.66,8.92-4.29,13.03-1.33,3.75,2.7,5.71,7.53,2.86,13.17l32.44,36.22,10.6.83,35.93-36.19c-1.23-4.98-1.05-9.9,2.62-12.81,4.6-3.65,9.83-2.16,14.34,1.35l48.17-13.54c1.44-5.26,4.63-9.09,9.76-9.27,5.82-.2,9.05,3.96,10.57,9.44l66.2,29.33c4.3-3.82,10.66-4.51,14.76-.53,4.23,4.11,4.62,10.78-.33,15.7l34.32,88.07c6.29.53,10.15,4.84,10.34,10.19s-3.66,9.93-9.88,10.59l-21.3,52.64c-9.39,23.2-21.74,44.72-33.03,66.85,2.8,4.09,3.72,9,1.69,12.5-2.74,4.7-7.06,7.16-13.93,4.83ZM143.64,29.75l46.04-3.1-40.79-11.59-5.83,4.15c-1.24.89-2.79,3.99-2.89,5.69-.09,1.37,2.03,3.97,3.48,4.85ZM134.4,20.54c.78-1.18.45-3.8-1.05-5.03l-53.78,22.75,44.18-7.44c2.09-7.69,7.46-5.48,10.66-10.28ZM365.25,30.4c4.26-.13,3.88-8.3,1.91-9.69l-6.78-4.78-41.63,11.86c15.37,1.34,30.84,3.07,46.5,2.61ZM384.59,32.58l44.51,6.82-52.32-23.17c-2.14,1.43-2.55,3.86-1.73,5.81,2.08,4.99,7.7,2.11,9.54,10.54ZM189.82,66.3l8.87-26.85c.4-1.21.85-3.23.38-4.09-.47-.86-2.41-2.05-3.5-2.57l-52.86,3.68,38.45,33.97c1.24,1.1,4.08,1.77,5.36,1.25,1.47-.6,2.55-3.18,3.28-5.39ZM324.84,72.44l39.25-34.32-49.84-3.89c-2.74-.21-5.54,2.64-5.57,5.18l8.26,30.67c.36,1.35,1.75,3.65,2.84,4.21,1.1.56,3.59-.56,5.05-1.84ZM84.25,71.07l36.18-32.67-54.66,9.15c-.54.82-.54,2.99.01,3.6l18.46,19.92ZM244.05,76.98l-32.9-36.82c-1.25-1.33-3.55-1.83-5.29-1.22l-11.41,34.49,4.22,4.91,45.39-1.36ZM311.17,74.34l-10.34-36.88-40.4,40.11,46.99,2.37,3.74-5.61ZM444.07,48.95l-56.91-9.18,35.62,32.94c7.24-7.82,13.95-14.17,21.29-23.75ZM117.67,95.44l57.32-13.17c1.55-.36,3.67-1.73,3.78-3.05.08-.98-.94-2.65-1.9-3.5l-39.32-34.74c-2.2.65-4.06,2.47-4.92,4.47l-20.69,48.11c-.82,1.91,3.65,2.36,5.73,1.88ZM388.72,97.37c.78.18,3.02.46,3.24-.2l.96-2.87-18.71-50.2-4.44-1.75-42.85,37.35c-.31,1.14,1.15,3.56,2.45,3.86l59.36,13.82ZM104.33,93.24l21.56-49.97-37.11,32.82c5.06,5.76,9.23,11.15,15.55,17.15ZM406.33,91.02l11.39-13.75-35.98-32.87,17.81,47.76c.74,1.99,5.99.88,6.79-1.14ZM62.29,91.19c-2.75-3.69-1.54-6.69.19-9.21l-8.32-26.13-34.59,82.86,42.72-47.52ZM77.89,74.08l-16.44-18c2.11,7.85,4.46,14.99,8.26,22.09,1.48,2.17,7.85-1.03,8.18-4.09ZM484.32,138.9l-6.55-19.5-24.27-62.49-9.77,25.64c.5,2.69.8,5.67-1.03,9.17l41.61,47.17ZM431.08,79.58l7.12-.88,8.1-20.73-17.35,17.2,2.12,4.41ZM94.11,93.27c-3.58-6.11-6.48-8.66-10.53-12.26l-5.27,5.29,15.8,6.97ZM426.8,88.41c.04-1.98-2.19-5.13-4.27-5.42-3.91,3.23-7.27,6.86-10.08,11.29l14.36-5.87ZM248.06,89.43l-5.67-5.49-44.76,1.07,44.1,35.03c.51,1.68,5.72,1.82,5.75.25l.58-30.85ZM259.54,120.71l47.86-34.12-45.97-2.03-6.69,4.77-.11,31.68c0,1.23,3.93.41,4.92-.3ZM168.84,140.22l13.46-48.36c.18-.64.1-2.71-.51-2.96l-1.86-.79-66.93,15.52,46.87,39.28c1.26,1.42,3.74,2.78,5.19,2.37,1.59-.44,3.1-2.65,3.77-5.06ZM178.33,148.59l64.2-19.21-48.67-38.57c-1.16-.92-4.17.41-4.64,1.31l-14.53,52.43c-.62,1.85,1.37,4.72,3.64,4.04ZM338.62,146.98l52.83-41.86-63.38-14.84c-1.76-.41-6.12.63-5.68,2.58l11.21,49.9c.38,1.7,3.31,5.58,5.02,4.23ZM326.98,145.5l-11.47-51.39c-.19-1.08-3.04-2.51-4.27-1.64l-51.8,37.04,62.62,20.44c2.5.82,5.11-1.17,4.91-4.45ZM94.61,99.7l-15.34-6.1c-1.47-.59-6.01.1-5.85,1.59l5.43,50.56,19.27-37.15-3.52-8.89ZM423.78,146.94l7.87-47.85c.19-1.14.42-3.79-.48-4.17l-2.94-1.22-18.08,7.63c-.75,2.92-1.9,5.87-3.72,8.54l17.36,37.07ZM66.74,152.37l5.06-6.24-4.52-49.9-47.54,52.87,47,3.26ZM435.93,153.52l48.98-3.42-46.95-52.81-7.06,50.07,5.03,6.16ZM159.24,151.69l-48.44-40.7c-3.03-1.15-6.16.36-7.62,3.29l-17.04,32.08c-.53.99-2.04,2.85-1.5,3.58l2.1,2.84,72.49-1.09ZM416.95,148.26l-16.72-35.31c-2.64-1.63-6.01-1.27-8.52.73l-49.28,39.37,71.06.47c1.4,0,2.99-.24,3.63-.89s.36-3.24-.17-4.36ZM246.89,226.3l.39-85.72-4.93-3.49-60.89,17.49c-1.15.33-3.03,1.68-3.36,2.63s.79,2.98,1.75,3.91l67.04,65.18ZM321.37,163.02c1.25-1.18,2.3-3.77,1.69-4.66-.49-.71-2.06-1.78-3.02-2.09l-55.52-17.52c-3.05-1.72-8.76-.88-10.3,2.21l.08,85.42,67.07-63.36ZM72.87,165.31c-2.76-1.79-4.49-3.5-6.01-6.07l-46.52-3.13,51.12,73.14,1.41-63.94ZM431.73,232.17l53.35-74.68-49.68,2.9c-1.89,2.6-3.58,4.21-6.08,6.1l2.41,65.67ZM162.44,163.65l-4.34-4.66-73.98.87,56.22,77.65,22.1-73.86ZM360.11,239.28l57.96-78.59-75-.61-4.42,5,21.46,74.2ZM152.3,241.35l89.62-9.37-66.46-65.34c-1.29-1.27-2.96-2.42-4.11-2.3-.96.1-2.71,2.13-2.98,3.06l-20.46,69.77c.13,1.63,2.29,4.4,4.39,4.18ZM345.81,243.01c2.09.26,4.91-.06,5.4-1.15.41-.92.78-2.96.88-4.25l-19.64-69.89c-.61-.83-1.67-2.07-2.4-2.21s-2.26.79-2.95,1.46l-52.78,50.75c-4.98,4.78-9.66,8.2-14.68,14.79l86.18,10.52ZM84.91,238.33l49.47,3.35-54.63-76.02-1.38,64.86c2.81,2.09,4.8,4.41,6.54,7.81ZM418.5,239.84c1.3-3.92,3.02-5.75,6.18-7.31l-2.26-65.75-56.46,76.65,52.54-3.59ZM71.07,249.63c-7.52-2.94-7.97-9.77-4.25-15.19l-44.89-63.34c9.12,24.5,19.05,46.88,30.18,69.61l17.66,36.05,1.29-27.14ZM434.58,278.22c10.78-20.47,21.91-39.44,30.32-60.7l17.55-44.36-45.55,63.85c3.13,6.7,2,11.29-4.58,14.9l2.27,26.31ZM247.2,337.96l-.14-92.72c-3.09-1.53-4.81-3.1-6.52-5.9l-90.65,9.35,90.91,85.86c2.18,2.06,4.07,3.65,6.4,3.41ZM254.45,339.08l95.56-88.64-89.13-10.8-6.81,6.17.39,93.28ZM80.63,279.86l51.16-31.05-47.84-3.21c-2.09,2.67-3.51,3.8-5.86,5.26l-1.68,27.76,1.71,2.15c.25.32,1.8-.49,2.51-.92ZM427.6,279.23l-2.44-26.58c-3.38-1.82-4.44-2.81-6.46-5.63l-49.72,3.52,53.89,30.82c1.03.59,2.17,1.03,2.87,1.19s1.94-2.56,1.87-3.33ZM153.05,321.53l-12.65-62.19c-.17-1.46-1.47-3.99-2.65-4.29-.98-.25-3.14.28-4.18.9l-48.51,29.08c-1.16.7-3.06,1.7-2.82,2.61.19.73,1.6,2.01,2.33,2.52l68.49,31.37ZM168.25,327.02l70.12,14.77-91.73-86.31,12.95,62.16c4.64,1.31,7.93,4.12,8.66,9.38ZM352.6,321.71l70.24-32.54-55.05-31.23c-1.72-.98-3.94-1.97-5.18-1.43-1.61.69-2.66,3.08-3.02,5.15l-9.91,57.19c.27.91,1.99,2.63,2.92,2.85ZM335.56,327.59c.42-5.77,3.84-6.98,6.99-8.82l11.04-62.19-60.9,57-30.95,28.51,73.81-14.5ZM149.59,335.66l-2.21-9.06c-19.91-9.4-39.21-18.96-60.41-27.56l49,48.94c1.97.37,5.43.17,7.18-.44l6.44-11.87ZM362.09,348.94l6.58.32,49.75-50.16-62.72,28.51-2.18,7.89,8.57,13.45ZM247.14,357.97c-4.44-1.96-6.3-4.35-7.22-8.51l-70.92-15.2,27.02,31.13,51.09,58.25.04-65.66ZM254.19,423.97l55.95-62.26,23.84-26.56-72.6,14.28c-1.11,4.43-3.74,6.64-7.34,8.72l.15,65.82ZM151.46,361.24l81.26,56.69-70.14-80.04-6.72,1.42-6.87,11.18c1.19,3.38,1.99,7.05,2.47,10.74ZM355.56,352.02l-8-12.83c-2.25-.3-5.31-.37-7.62-.15l-71.74,80.18,86.1-57.81c-.38-3.04.22-5.89,1.26-9.4Z"/>
    <g>
      <path class="cls-1" d="M651.98,378.78c-8.39,22.44-29.72,34.87-53.09,31.51-9.21-1.33-16.93-5.38-22.99-12.61-1.48,6.05-5.74,10.6-11.77,10.73l-13.71.29c-6.9-.66-13.82-5.98-13.82-14.11l-.05-120.87c0-7.29,5.53-13.47,12.68-13.51l17.58-.09c6.91,1.92,10.88,6.73,10.91,13.59l.12,28.71c9.02-8.51,19.16-11.97,31.05-11.77,20.73.36,37.67,12.67,44.23,32.27,6.05,18.06,5.74,37.45-1.15,55.85ZM612.9,365.37c4.92-9.59,4.73-21.18.27-30.42-3.61-7.49-11.08-11.14-18.83-10.59-16.22,1.16-21.13,20.75-16.4,37.69,2.18,7.82,9.15,12.89,16.46,13.59,7.2.69,14.72-2.9,18.5-10.27Z"/>
      <path class="cls-1" d="M577.72,178.9l-.32,57.05c-.04,7.06-4.77,13.81-12.12,13.99l-14.2.35c-6.87.17-14.4-5.32-14.4-13.29l-.03-92.58c0-6.94,4.68-14.18,11.49-15.2,13.07-1.96,27.02-1.4,27.79,9.94,15.06-15.15,40.32-17.73,56.67-2.94,8.99,8.14,13.52,21.07,13.58,33.24l.37,66.58c.04,7.94-5.35,14.96-13.5,15.05l-14.19.16c-6.63.07-13.34-5.65-13.38-13.11l-.33-57.96c-.03-5.65-3.26-11.48-8.09-13.78-4.13-1.97-9.33-1.21-12.79,1.45-2.5,1.92-6.52,6.38-6.54,11.06Z"/>
      <path class="cls-1" d="M885.44,408.57l-14.79.02c-6.66,0-12.94-6.21-12.97-13.17l-.31-61.73c-.02-4.82-3.88-9.88-7.09-11.18-4.68-1.9-10.28-.99-13.79,2.6-3.19,3.26-5.26,8.25-5.28,12.97l-.23,56.59c-.03,7.64-6.65,13.94-13.65,13.88l-14.92-.12c-6.65-.05-12.51-6.67-12.51-13.81v-96.88c.02-7.78,6.2-13.64,13.48-14.2,13.89-1.07,24.94-1.52,27.15,10.26,10.2-11,24.06-15.61,38.09-12.91,10.12,1.95,18.19,7.48,24.1,16.44,13.27-17.18,36.62-22.32,55.39-11.94,14.62,8.08,19.93,26.16,19.9,42.82l-.09,66.46c-.01,7.26-5.71,13.72-12.68,13.8l-16.13.19c-6.56.08-12.97-6.07-13.01-13.1l-.35-60.76c-.03-5.19-3.7-10.42-7.31-11.9-4.96-2.04-10.52-1.4-14.32,2.53-3.3,3.41-5.04,8.7-5.07,13.63l-.34,56.07c-.04,7.03-6.46,13.43-13.28,13.44Z"/>
      <path class="cls-1" d="M708.96,356.56c5.91,20.22,28.12,19.89,48.08,13.15,4.52-1.53,9.28-1.43,13.42,1.15,3.11,1.94,5.14,6.9,5.9,11.03,2,10.91-2.69,19.95-13.35,23.63-33.77,11.66-77.23,6.14-91.16-29.41-12.05-30.75-5.91-73.64,25-89.7,23.97-12.45,58.85-9.1,73.48,14.24,7.21,11.5,9.49,25,7.61,38.42-1.36,9.65-9.46,16.88-19.62,16.98l-49.36.51ZM739.47,330.75c1.65-6.1.78-10.23-2.44-14.06-2.48-2.95-7.45-5.12-12.08-4.67-9.67.93-16.03,8.79-15.87,18.91l30.39-.18Z"/>
      <path class="cls-1" d="M814.94,210.99c.03,15.19,18.65,3.82,22.1,15.63s2.17,23.91-8.95,27.84c-13.88,4.91-30.36,4.04-42.46-5.11-8.16-6.17-12.27-16.99-12.32-27.24l-.26-54.74c-6.14.4-10.73-2.57-11.77-8.45-.95-5.36-1-11.89-.09-17.29,1-5.91,6.67-8.62,11.96-7.43l.29-20.43c.11-7.47,6.08-14.39,13.46-14.42l14.28-.07c7.62-.04,13.48,6.92,13.55,14.47l.17,19.97,12.97.28c5.57.12,10.62,4.6,10.6,10.35l-.05,13.03c-.02,5.95-5.53,9.88-10.96,9.94l-12.61.16.09,43.51Z"/>
      <path class="cls-1" d="M694.46,203.6c5.02,18.75,24.93,19.63,43.26,12.6,4.12-1.58,8.81-1.65,12.97.74,2.97,1.71,5.41,6.67,6.22,10.81,2,10.25-2.4,18.22-11.73,22.39-32.74,14.6-76.41,6.29-87.21-30.35-5.19-17.61-5.12-36.29-.19-53.85,7.27-25.87,30.65-41.29,57.16-38.85,30.65,2.82,46.03,27.01,43.37,57.31-.95,10.86-9.31,18.74-20.63,18.84l-43.2.37ZM721.69,177.92c1.93-4.12,1.19-8.99-.94-12.23-1.63-2.47-5.7-5.16-9.43-5.51-10.07-.92-17.33,6.77-17.17,17.72h27.55Z"/>
      <path class="cls-1" d="M886.37,251.11c-5.38,5.82-12.43,7.5-20.4,5.34-6.16-1.67-12.15-6.42-14.62-13.78-5.48-16.33-1.05-37.23,14.52-41.83,7.3-2.15,13.56-.95,20.05,3.76l.12-18.11c.01-1.81,1.24-5.37,2.68-6.25,3.43-2.11,10.94-2.22,14.62.16,1.79,1.16,2.8,4.67,2.79,7.19l-.04,60.22c0,2.51-1.58,5.97-3.19,7-4.46,2.84-15.05,2.83-16.52-3.68ZM885.71,235.57c1.95-4.89,1.75-10.45-.45-14.79-1.37-2.7-4.79-4.72-7.32-4.66-2.44.06-5.71,1.77-7.1,4.1-2.83,4.73-2.8,10.61-.67,15.71,1.25,3.01,4.77,4.99,7.69,5.02,2.9.03,6.48-1.96,7.85-5.39Z"/>
      <path class="cls-1" d="M968.01,228.55c0,15.89-12.88,28.77-28.77,28.77s-28.77-12.88-28.77-28.77,12.88-28.77,28.77-28.77,28.77,12.88,28.77,28.77ZM947.27,235.1c1.68-4.53,1.44-9.85-.33-13.99-1.41-3.32-4.8-5.27-7.99-5.13-2.66.12-5.94,2.15-7.08,5.1-3.37,8.72-.6,19.39,7.18,19.82,3.11.17,6.81-1.99,8.22-5.8Z"/>
      <g>
        <path class="cls-1" d="M544.18,81.84v6.42h10.99v3.65h-10.99v9.64h-4.18v-23.39h16.52l-.04,3.68h-12.3Z"/>
        <path class="cls-1" d="M568.39,96.19c1.13,1.25,2.67,1.87,4.61,1.87s3.47-.62,4.61-1.87,1.7-2.94,1.7-5.09v-12.95h4.18v13.12c0,3.37-.98,5.96-2.94,7.78-1.96,1.82-4.48,2.73-7.55,2.73s-5.59-.91-7.55-2.73c-1.96-1.82-2.94-4.41-2.94-7.78v-13.12h4.18v12.95c0,2.14.57,3.84,1.7,5.09Z"/>
        <path class="cls-1" d="M610.05,78.16h4.18v23.39h-4.54l-14.04-17.06v17.06h-4.18v-23.39h4.18l14.39,17.47v-17.47Z"/>
        <path class="cls-1" d="M641.28,81.22c2.39,2.04,3.58,4.88,3.58,8.52s-1.16,6.51-3.47,8.63c-2.32,2.12-5.86,3.18-10.64,3.18h-8.22v-23.39h8.51c4.44,0,7.86,1.02,10.25,3.06ZM640.64,89.84c0-5.35-3.25-8.03-9.75-8.03h-4.18v16.03h4.64c3,0,5.3-.67,6.9-2.02s2.39-3.34,2.39-5.97Z"/>
        <path class="cls-1" d="M655.18,96.23l-2.48,5.32h-4.47l10.92-23.39h4.47l10.92,23.39h-4.47l-2.48-5.32h-12.41ZM665.88,92.58l-4.5-9.64-4.5,9.64h9Z"/>
        <path class="cls-1" d="M690.7,97.97c1.44,0,2.68-.23,3.72-.69,1.04-.46,2.13-1.19,3.26-2.19l2.69,2.61c-2.46,2.59-5.46,3.95-9,4.08l-.57,1.04c1.65.2,2.48,1.08,2.48,2.64,0,.85-.37,1.59-1.1,2.23-.73.64-1.66.95-2.78.95s-2.11-.25-2.96-.74l.92-1.91c.45.22.9.34,1.37.34s.82-.13,1.08-.39c.26-.26.39-.56.39-.92s-.14-.67-.41-.95c-.27-.28-.62-.42-1.03-.42s-.76.06-1.05.17l1.17-2.11c-3.24-.38-5.9-1.67-7.98-3.88-2.08-2.21-3.12-4.97-3.12-8.3s1.26-6.15,3.78-8.47c2.52-2.32,5.7-3.48,9.54-3.48s7.05,1.34,9.63,4.02l-2.66,2.74c-1.18-1.07-2.3-1.82-3.35-2.24-1.05-.42-2.29-.64-3.7-.64-2.51,0-4.61.76-6.31,2.29-1.7,1.53-2.55,3.48-2.55,5.86s.84,4.36,2.53,5.96,3.69,2.39,6.01,2.39Z"/>
        <path class="cls-1" d="M718.42,78.16l10.92,23.39h-4.61l-2.52-5.32h-11.88l-2.41,5.32h-4.47l10.92-23.39h4.04ZM718.99,76.32c-.62,0-1.47-.26-2.57-.79-1.1-.52-1.8-.79-2.11-.79-.78,0-1.18.49-1.21,1.47h-2.62c0-1.29.28-2.34.83-3.14s1.33-1.2,2.32-1.2c.64,0,1.52.26,2.66.79,1.13.52,1.88.79,2.23.79.71,0,1.06-.49,1.06-1.47h2.66c-.07,2.9-1.16,4.35-3.26,4.35ZM720.55,92.58l-4.25-9-4.22,9h8.47Z"/>
        <path class="cls-1" d="M754.94,98.32c-2.51,2.31-5.6,3.46-9.29,3.46s-6.78-1.15-9.29-3.46c-2.51-2.31-3.76-5.19-3.76-8.63s1.25-6.32,3.76-8.63c2.51-2.31,5.6-3.46,9.29-3.46s6.78,1.15,9.29,3.46c2.5,2.31,3.76,5.19,3.76,8.63s-1.25,6.32-3.76,8.63ZM751.87,83.68c-1.69-1.65-3.76-2.48-6.22-2.48s-4.53.82-6.22,2.48-2.53,3.65-2.53,6.01.84,4.36,2.53,6.01c1.69,1.65,3.76,2.48,6.22,2.48s4.53-.82,6.22-2.48c1.69-1.65,2.53-3.65,2.53-6.01s-.84-4.36-2.53-6.01Z"/>
      </g>
    </g>
  </g>
</svg>