<?xml version="1.0" encoding="UTF-8"?>
<svg id="Camada_2" data-name="Camada 2" xmlns="http://www.w3.org/2000/svg" viewBox="0 0 1041.16 457.27">
  <defs>
    <style>
      .cls-1 {
        fill: #775cde;
      }
    </style>
  </defs>
  <g id="Camada_1-2" data-name="Camada 1">
    <g>
      <path class="cls-1" d="M690.51,389.67c-8.53,23.09-30.22,35.88-53.97,32.41-9.36-1.37-17.21-5.53-23.37-12.98-1.51,6.22-5.84,10.91-11.97,11.04l-13.94.3c-7.01-.68-14.05-6.15-14.05-14.51l-.05-124.35c0-7.5,5.62-13.86,12.89-13.9l17.87-.1c7.02,1.98,11.06,6.92,11.09,13.98l.12,29.54c9.17-8.76,19.48-12.32,31.56-12.11,21.08.37,38.29,13.03,44.97,33.2,6.15,18.58,5.83,38.53-1.17,57.46ZM650.77,375.88c5-9.87,4.8-21.78.27-31.3-3.67-7.7-11.26-11.46-19.15-10.89-16.49,1.19-21.48,21.34-16.67,38.77,2.22,8.05,9.3,13.26,16.74,13.98,7.32.71,14.97-2.98,18.81-10.56Z"/>
      <path class="cls-1" d="M615.51,184.04l-.33,58.69c-.04,7.27-4.91,14.21-12.47,14.4l-14.61.36c-7.06.17-14.81-5.47-14.82-13.67l-.04-95.24c0-7.14,4.82-14.59,11.82-15.64,13.45-2.01,27.8-1.44,28.59,10.22,15.49-15.59,41.48-18.24,58.3-3.02,9.25,8.37,13.9,21.67,13.97,34.2l.38,68.49c.05,8.17-5.51,15.39-13.89,15.48l-14.6.16c-6.82.07-13.72-5.82-13.77-13.48l-.34-59.63c-.03-5.81-3.36-11.81-8.32-14.18-4.25-2.03-9.6-1.24-13.16,1.5-2.57,1.98-6.7,6.57-6.73,11.37Z"/>
      <path class="cls-1" d="M927.84,420.32l-15.03.02c-6.77,0-13.15-6.39-13.19-13.54l-.31-63.51c-.02-4.96-3.95-10.16-7.2-11.5-4.76-1.95-10.45-1.02-14.02,2.68-3.24,3.36-5.35,8.49-5.37,13.35l-.23,58.22c-.03,7.86-6.76,14.34-13.88,14.28l-15.17-.12c-6.76-.05-12.72-6.86-12.72-14.21l.02-99.67c0-8.01,6.29-14.03,13.69-14.61,14.12-1.1,25.35-1.56,27.6,10.55,10.37-11.31,24.46-16.06,38.73-13.28,10.29,2,18.5,7.7,24.5,16.91,13.49-17.67,37.22-22.97,56.31-12.28,14.86,8.32,20.26,26.91,20.23,44.05l-.09,68.37c-.01,7.47-5.81,14.12-12.89,14.2l-16.39.19c-6.67.08-13.18-6.25-13.22-13.47l-.35-62.51c-.03-5.34-3.76-10.72-7.43-12.24-5.04-2.1-10.7-1.44-14.56,2.6-3.35,3.51-5.12,8.95-5.15,14.02l-.34,57.69c-.04,7.23-6.57,13.82-13.51,13.82Z"/>
      <path class="cls-1" d="M748.43,366.81c6.01,20.8,28.59,20.46,48.88,13.53,4.59-1.57,9.44-1.47,13.64,1.18,3.17,1.99,5.23,7.09,6,11.35,2.03,11.23-2.73,20.52-13.57,24.31-34.33,12-78.51,6.32-92.67-30.25-12.25-31.64-6.01-75.76,25.41-92.28,24.36-12.81,59.83-9.36,74.7,14.65,7.33,11.83,9.65,25.72,7.74,39.52-1.38,9.92-9.62,17.36-19.94,17.47l-50.18.52ZM779.44,340.26c1.67-6.28.8-10.52-2.48-14.47-2.52-3.04-7.57-5.26-12.28-4.81-9.83.95-16.3,9.05-16.13,19.46l30.89-.18Z"/>
      <path class="cls-1" d="M859.56,217.06c.03,15.63,19.19,3.93,22.74,16.08,3.55,12.15,2.23,24.6-9.21,28.64-14.28,5.05-31.24,4.16-43.68-5.25-8.4-6.35-12.62-17.48-12.67-28.03l-.27-56.31c-6.31.41-11.04-2.65-12.11-8.69-.98-5.51-1.03-12.23-.09-17.79,1.03-6.08,6.86-8.86,12.3-7.64l.3-21.02c.11-7.68,6.26-14.8,13.85-14.84l14.69-.07c7.84-.04,13.87,7.12,13.94,14.89l.17,20.54,13.35.29c5.73.12,10.93,4.74,10.91,10.65l-.05,13.4c-.02,6.13-5.69,10.16-11.28,10.23l-12.97.16.09,44.76Z"/>
      <path class="cls-1" d="M735.61,209.45c5.16,19.29,25.64,20.19,44.5,12.96,4.24-1.63,9.07-1.69,13.34.77,3.06,1.76,5.56,6.86,6.39,11.12,2.06,10.55-2.47,18.75-12.07,23.03-33.68,15.02-78.6,6.47-89.72-31.22-5.34-18.12-5.27-37.33-.2-55.39,7.47-26.61,31.53-42.48,58.8-39.97,31.53,2.9,47.35,27.78,44.62,58.96-.98,11.18-9.58,19.28-21.23,19.38l-44.44.38ZM763.62,183.04c1.98-4.24,1.23-9.25-.97-12.58-1.67-2.54-5.87-5.31-9.71-5.66-10.35-.95-17.83,6.96-17.67,18.23h28.34Z"/>
      <path class="cls-1" d="M940.6,257.07c-6.63,7.17-15.31,9.23-25.13,6.57-7.59-2.06-14.97-7.91-18.01-16.98-6.75-20.11-1.3-45.86,17.88-51.52,8.99-2.65,16.7-1.17,24.7,4.63l.14-22.31c.01-2.23,1.53-6.61,3.3-7.7,4.23-2.6,13.47-2.73,18.01.2,2.21,1.43,3.44,5.75,3.44,8.85l-.05,74.17c0,3.09-1.94,7.35-3.94,8.62-5.49,3.5-18.53,3.48-20.35-4.53ZM939.79,237.92c2.4-6.02,2.16-12.88-.56-18.22-1.69-3.32-5.89-5.81-9.01-5.74s-7.03,2.18-8.75,5.05c-3.49,5.83-3.45,13.07-.83,19.35,1.54,3.7,5.88,6.15,9.48,6.19s7.98-2.41,9.67-6.64Z"/>
      <path class="cls-1" d="M1041.16,229.27c0,19.57-15.87,35.44-35.44,35.44s-35.44-15.87-35.44-35.44,15.87-35.44,35.44-35.44,35.44,15.87,35.44,35.44ZM1015.62,237.35c2.07-5.58,1.77-12.13-.4-17.24-1.74-4.09-5.91-6.49-9.85-6.32-3.27.15-7.31,2.65-8.72,6.28-4.15,10.75-.74,23.89,8.84,24.41,3.84.21,8.38-2.45,10.12-7.14Z"/>
      <path class="cls-1" d="M440.07,308.65l-55.79,55.6c1.02,4.52.42,9.36-2.2,12-3.68,3.71-8.3,3.7-13.15,1.44l-75.3,50.71-24.67,15.91c.71,7.41-4.45,13.07-11.15,12.96-7.25-.11-11.45-5.6-10.65-13.15l-96.09-67.22c-4.04,2.3-9.01,2.42-12.59-.22-4.01-2.95-4.83-7.95-2.67-13.07l-56.49-55.99c-6.02,2.63-11.52.76-14.42-3.34-3.08-4.37-2.17-10.19,1.77-14.38l-23.86-48.26c-12.09-24.46-21.54-49.33-31.9-74.37-6.75-.17-10.74-4.78-10.91-10.36-.19-6.08,4.34-10.62,10.92-11.09L49.35,55.05c-4.12-4.73-4.74-11.2-.56-15.6,4.28-4.51,11-4.87,15.67-.3l69.72-29.36c1.32-5.73,4.66-9.55,10.19-9.77s9,3.91,10.78,9.26l49.17,13.36c4.18-2.74,9.18-4.41,13.4-1.37,3.85,2.78,5.87,7.75,2.94,13.55l33.38,37.26,10.91.86,36.96-37.23c-1.27-5.12-1.08-10.19,2.7-13.18,4.74-3.75,10.11-2.23,14.75,1.38l49.55-13.93c1.48-5.41,4.76-9.36,10.04-9.54,5.98-.21,9.31,4.07,10.87,9.71l68.11,30.17c4.42-3.92,10.97-4.64,15.18-.55,4.35,4.23,4.76,11.09-.34,16.15l35.31,90.6c6.47.55,10.44,4.98,10.63,10.48.19,5.5-3.77,10.22-10.16,10.89l-21.92,54.15c-9.66,23.87-22.37,46-33.98,68.78,2.88,4.21,3.83,9.26,1.74,12.86-2.82,4.83-7.26,7.36-14.34,4.97ZM147.77,30.61l47.36-3.19-41.97-11.92-5.99,4.27c-1.28.91-2.87,4.11-2.98,5.86-.09,1.41,2.09,4.09,3.58,4.99ZM138.26,21.13c.81-1.21.47-3.91-1.08-5.17l-55.33,23.4,45.45-7.65c2.15-7.91,7.68-5.63,10.97-10.58ZM375.76,31.28c4.38-.13,3.99-8.54,1.97-9.97l-6.98-4.92-42.83,12.2c15.81,1.38,31.73,3.16,47.84,2.68ZM395.65,33.51l45.79,7.02-53.83-23.84c-2.2,1.47-2.62,3.97-1.78,5.98,2.14,5.14,7.92,2.17,9.82,10.84ZM195.27,68.21l9.13-27.62c.41-1.25.88-3.32.39-4.21s-2.48-2.11-3.6-2.65l-54.38,3.79,39.56,34.94c1.28,1.13,4.2,1.83,5.51,1.29,1.52-.62,2.63-3.27,3.38-5.54ZM334.18,74.53l40.38-35.31-51.28-4.01c-2.82-.22-5.7,2.71-5.73,5.33l8.5,31.55c.38,1.39,1.8,3.76,2.92,4.33s3.69-.57,5.2-1.89ZM86.67,73.11l37.22-33.61-56.23,9.41c-.56.84-.56,3.08.02,3.7l19,20.5ZM251.07,79.2l-33.85-37.88c-1.28-1.37-3.65-1.88-5.44-1.26l-11.74,35.48,4.34,5.05,46.69-1.4ZM320.12,76.48l-10.63-37.94-41.56,41.26,48.34,2.44,3.85-5.77ZM456.84,50.36l-58.55-9.45,36.65,33.88c7.45-8.05,14.35-14.58,21.9-24.44ZM121.06,98.19l58.97-13.55c1.6-.37,3.77-1.78,3.89-3.14.09-1-.96-2.72-1.95-3.6l-40.45-35.74c-2.26.67-4.18,2.54-5.07,4.6l-21.28,49.49c-.84,1.96,3.76,2.42,5.89,1.93ZM399.9,100.17c.81.19,3.1.47,3.33-.2l.98-2.95-19.25-51.65-4.57-1.8-44.09,38.42c-.32,1.17,1.18,3.66,2.52,3.97l61.07,14.22ZM107.33,95.92l22.18-51.41-38.17,33.77c5.2,5.93,9.49,11.47,16,17.64ZM418.02,93.64l11.71-14.15-37.02-33.81,18.32,49.13c.76,2.05,6.16.91,6.98-1.17ZM64.08,93.81c-2.83-3.79-1.58-6.88.2-9.47l-8.56-26.88-35.59,85.24,43.95-48.89ZM80.13,76.21l-16.91-18.52c2.18,8.07,4.59,15.42,8.5,22.73,1.52,2.23,8.08-1.06,8.42-4.21ZM498.25,142.89l-6.74-20.06-24.96-64.28-10.05,26.38c.51,2.77.82,5.84-1.06,9.44l42.81,48.53ZM443.48,81.87l7.33-.91,8.34-21.33-17.85,17.7,2.18,4.54ZM96.82,95.95c-3.68-6.28-6.67-8.91-10.83-12.61l-5.42,5.44,16.25,7.17ZM439.07,90.95c.04-2.03-2.25-5.28-4.4-5.58-4.02,3.32-7.48,7.06-10.37,11.62l14.77-6.04ZM255.2,92l-5.83-5.65-46.04,1.1,45.37,36.04c.52,1.73,5.88,1.87,5.91.26l.6-31.74ZM267,124.18l49.24-35.1-47.3-2.08-6.89,4.91-.11,32.59c0,1.27,4.04.42,5.06-.3ZM173.69,144.25l13.84-49.75c.18-.65.1-2.79-.52-3.05l-1.91-.81-68.85,15.96,48.22,40.41c1.29,1.47,3.85,2.86,5.34,2.44,1.64-.46,3.19-2.73,3.88-5.21ZM183.46,152.86l66.05-19.77-50.07-39.68c-1.19-.94-4.29.42-4.78,1.35l-14.94,53.94c-.63,1.91,1.41,4.86,3.75,4.16ZM348.36,151.2l54.35-43.07-65.2-15.27c-1.81-.42-6.29.65-5.84,2.65l11.53,51.33c.39,1.74,3.4,5.75,5.16,4.35ZM336.38,149.68l-11.8-52.87c-.2-1.11-3.13-2.58-4.39-1.68l-53.29,38.11,64.43,21.03c2.58.84,5.26-1.21,5.05-4.58ZM97.33,102.56l-15.78-6.28c-1.51-.6-6.18.1-6.02,1.63l5.59,52.01,19.83-38.22-3.62-9.14ZM435.97,151.17l8.09-49.22c.19-1.17.43-3.9-.49-4.29l-3.03-1.26-18.6,7.85c-.77,3-1.96,6.04-3.83,8.79l17.86,38.13ZM68.66,156.75l5.2-6.42-4.65-51.33-48.91,54.39,48.35,3.35ZM448.47,157.93l50.39-3.52-48.3-54.33-7.26,51.51,5.18,6.34ZM163.82,156.05l-49.83-41.87c-3.12-1.19-6.34.37-7.84,3.38l-17.53,33c-.54,1.02-2.1,2.93-1.54,3.68l2.16,2.92,74.58-1.12ZM428.94,152.52l-17.2-36.33c-2.71-1.67-6.18-1.3-8.76.75l-50.7,40.5,73.1.49c1.44,0,3.08-.25,3.73-.92s.37-3.34-.18-4.49ZM254,232.81l.4-88.18-5.07-3.59-62.64,18c-1.18.34-3.11,1.73-3.45,2.71s.82,3.07,1.8,4.02l68.97,67.05ZM330.61,167.71c1.29-1.21,2.36-3.88,1.74-4.79-.5-.73-2.12-1.83-3.11-2.15l-57.12-18.02c-3.13-1.77-9.01-.9-10.59,2.28l.08,87.87,69-65.19ZM74.96,170.07c-2.84-1.84-4.62-3.61-6.18-6.24l-47.86-3.22,52.59,75.24,1.45-65.78ZM444.15,238.85l54.88-76.83-51.11,2.99c-1.95,2.67-3.68,4.33-6.25,6.28l2.48,67.56ZM167.11,168.36l-4.46-4.79-76.1.89,57.83,79.89,22.73-75.99ZM370.47,246.16l59.63-80.85-77.16-.63-4.54,5.14,22.08,76.34ZM156.68,248.29l92.2-9.64-68.38-67.22c-1.33-1.3-3.04-2.49-4.23-2.37-.99.1-2.79,2.19-3.07,3.15l-21.05,71.78c.14,1.67,2.36,4.53,4.52,4.3ZM355.76,250c2.15.26,5.05-.06,5.56-1.19.43-.94.81-3.05.91-4.37l-20.21-71.9c-.62-.85-1.72-2.13-2.47-2.28s-2.33.81-3.04,1.5l-54.3,52.21c-5.12,4.92-9.94,8.44-15.1,15.21l88.66,10.82ZM87.35,245.18l50.89,3.45-56.2-78.21-1.42,66.72c2.89,2.15,4.94,4.54,6.73,8.03ZM430.53,246.73c1.34-4.03,3.11-5.92,6.35-7.52l-2.32-67.64-58.08,78.85,54.05-3.69ZM73.11,256.81c-7.73-3.03-8.2-10.05-4.37-15.62l-46.18-65.16c9.39,25.21,19.59,48.23,31.05,71.62l18.17,37.09,1.33-27.92ZM447.08,286.23c11.1-21.06,22.54-40.58,31.19-62.44l18.06-45.64-46.86,65.69c3.22,6.9,2.06,11.62-4.72,15.33l2.33,27.07ZM254.31,347.68l-.14-95.39c-3.18-1.58-4.95-3.19-6.7-6.07l-93.26,9.62,93.52,88.33c2.25,2.12,4.19,3.76,6.58,3.51ZM261.77,348.84l98.3-91.19-91.7-11.11-7.01,6.34.4,95.96ZM82.95,287.91l52.63-31.94-49.21-3.3c-2.15,2.75-3.61,3.91-6.03,5.41l-1.73,28.56,1.76,2.21c.26.33,1.85-.5,2.58-.95ZM439.9,287.26l-2.51-27.34c-3.48-1.87-4.57-2.89-6.64-5.79l-51.15,3.62,55.44,31.71c1.06.61,2.23,1.06,2.95,1.23s1.99-2.63,1.92-3.43ZM157.46,330.78l-13.02-63.97c-.18-1.5-1.51-4.1-2.72-4.42-1.01-.26-3.23.28-4.3.93l-49.91,29.92c-1.19.72-3.15,1.75-2.9,2.69.2.75,1.65,2.06,2.39,2.59l70.46,32.27ZM173.09,336.42l72.13,15.2-94.37-88.8,13.33,63.95c4.77,1.35,8.16,4.24,8.91,9.65ZM362.75,330.96l72.26-33.47-56.64-32.13c-1.77-1.01-4.06-2.02-5.33-1.47-1.66.71-2.74,3.17-3.11,5.3l-10.2,58.84c.28.94,2.05,2.71,3.01,2.94ZM345.21,337.01c.43-5.94,3.95-7.18,7.19-9.08l11.36-63.97-62.66,58.64-31.84,29.33,75.94-14.92ZM153.89,345.31l-2.28-9.32c-20.49-9.67-40.34-19.51-62.15-28.35l50.41,50.35c2.03.38,5.59.18,7.38-.46l6.63-12.21ZM372.51,358.98l6.77.33,51.19-51.61-64.52,29.33-2.25,8.11,8.81,13.83ZM254.24,368.26c-4.56-2.01-6.48-4.47-7.43-8.75l-72.96-15.64,27.8,32.02,52.56,59.92.04-67.55ZM261.5,436.16l57.56-64.06,24.52-27.32-74.69,14.69c-1.14,4.56-3.85,6.83-7.55,8.97l.16,67.71ZM155.81,371.63l83.6,58.33-72.15-82.34-6.92,1.46-7.07,11.51c1.23,3.48,2.04,7.25,2.54,11.05ZM365.79,362.15l-8.23-13.2c-2.31-.3-5.46-.38-7.84-.15l-73.8,82.49,88.58-59.47c-.4-3.12.23-6.06,1.29-9.67Z"/>
      <path class="cls-1" d="M679.03,97.64l-9.92.18-.07-22.38,8.64.11c5.8.07,10.1,4.78,10.59,9.59.55,5.42-2.43,12.38-9.24,12.5ZM672.23,95.3c5.85.34,10.1-.59,11.86-3.8s1.51-8.75-.84-10.95c-2.73-2.57-6.97-2.77-11.28-2.43l.25,17.19Z"/>
      <path class="cls-1" d="M807.97,86.74c0,6.3-5.11,11.42-11.42,11.42s-11.42-5.11-11.42-11.42,5.11-11.42,11.42-11.42,11.42,5.11,11.42,11.42ZM804.79,86.25c-.24-5.7-4.39-8.61-8.68-8.42-4.64.2-7.58,3.93-7.63,9.02s3.86,8.95,8.71,8.75c4.26-.18,7.83-3.78,7.6-9.34Z"/>
      <path class="cls-1" d="M654.98,75.45c.37,7.95,1.4,14.55-.49,23.82l-14.29-18.65-.92,17.43-1.96.04.4-24.16,14.69,18,.64-15.9,1.91-.58Z"/>
      <path class="cls-1" d="M771.25,92.5c-2.09-.59-8.6-.53-11.02-.09-1.05,3.38-1.26,5.26-4.64,5.67,3.13-8.75,5.44-15.56,10.45-24.23l10.44,24.17c-2.89-.45-3.33-1.61-5.23-5.51ZM770.19,89.32l-4.28-9.77-4.17,9.64,8.45.13Z"/>
      <path class="cls-1" d="M712.78,93.27c-1.6-2.1-8.73-1.77-10.93-.38-1.11,1.69-.71,5.55-5.05,4.84l10.83-23.94,10.38,24.24c-2.25-.17-3.61-2.64-5.23-4.76ZM711.86,89.38l-4.37-9.73-4.12,9.58,8.49.15Z"/>
      <path class="cls-1" d="M622.33,74.68c2.63,11.72,2.85,22.71-7.06,23.64-3.25.31-9.11-1.83-9.17-6l-.25-16.75,1.94-.03.89,14.4c.18,2.88,3.12,5.52,5.63,5.63,9.93.42,4.02-12.22,8.02-20.9Z"/>
      <path class="cls-1" d="M738.5,98.59l2.12,3.54c.51.85-1.43,3.64-2.39,3.4l-4.77-1.2,5.14-1.35c-.9-1.55-3.19-4.93-4.85-5.81-6.46-3.42-8.17-11.01-4.09-17.18,3.33-5.05,13.18-7.52,16.76-.05-3.72-.95-7.68-2.51-10.33-1.74-3.29.96-5.75,4.8-5.76,8.62-.02,3.43,2.25,7.14,4.91,8.17,3.29,1.27,6.3-.13,10.63-1.98-.04,2.93-2.94,4.68-7.37,5.57Z"/>
      <path class="cls-1" d="M582.61,85.19l9.76.73-.03,1.8-9.6.28c-.17,4.12.19,6.93-2.27,11.14l-.82-23.52h13.83s0,2.02,0,2.02l-10.83.29-.05,7.26Z"/>
    </g>
  </g>
</svg>